<?xml version="1.0"?>
<svg xmlns="http://www.w3.org/2000/svg" xmlns:xlink="http://www.w3.org/1999/xlink" version="1.1" width="320px" height="320px" viewBox="0 0 320 320"><rect x="0" y="0" width="320" height="320" fill="#ffffff" fill-opacity="1"/><path fill="#000000" fill-opacity="1" d="M10,10L94,10L94,22L10,22ZM106,10L130,10L130,22L106,22ZM226,10L310,10L310,22L226,22ZM10,22L22,22L22,34L10,34ZM82,22L94,22L94,34L82,34ZM166,22L178,22L178,34L166,34ZM226,22L238,22L238,34L226,34ZM298,22L310,22L310,34L298,34ZM10,34L22,34L22,46L10,46ZM34,34L70,34L70,46L34,46ZM82,34L94,34L94,46L82,46ZM106,34L118,34L118,46L106,46ZM142,34L202,34L202,46L142,46ZM226,34L238,34L238,46L226,46ZM250,34L286,34L286,46L250,46ZM298,34L310,34L310,46L298,46ZM10,46L22,46L22,58L10,58ZM34,46L70,46L70,58L34,58ZM82,46L94,46L94,58L82,58ZM106,46L130,46L130,58L106,58ZM142,46L166,46L166,58L142,58ZM178,46L214,46L214,58L178,58ZM226,46L238,46L238,58L226,58ZM250,46L286,46L286,58L250,58ZM298,46L310,46L310,58L298,58ZM10,58L22,58L22,70L10,70ZM34,58L70,58L70,70L34,70ZM82,58L94,58L94,70L82,70ZM106,58L154,58L154,70L106,70ZM178,58L190,58L190,70L178,70ZM202,58L214,58L214,70L202,70ZM226,58L238,58L238,70L226,70ZM250,58L286,58L286,70L250,70ZM298,58L310,58L310,70L298,70ZM10,70L22,70L22,82L10,82ZM82,70L94,70L94,82L82,82ZM118,70L130,70L130,82L118,82ZM178,70L190,70L190,82L178,82ZM202,70L214,70L214,82L202,82ZM226,70L238,70L238,82L226,82ZM298,70L310,70L310,82L298,82ZM10,82L94,82L94,94L10,94ZM106,82L118,82L118,94L106,94ZM130,82L142,82L142,94L130,94ZM154,82L166,82L166,94L154,94ZM178,82L190,82L190,94L178,94ZM202,82L214,82L214,94L202,94ZM226,82L310,82L310,94L226,94ZM118,94L130,94L130,106L118,106ZM142,94L154,94L154,106L142,106ZM178,94L214,94L214,106L178,106ZM10,106L58,106L58,118L10,118ZM82,106L94,106L94,118L82,118ZM106,106L118,106L118,118L106,118ZM154,106L190,106L190,118L154,118ZM214,106L226,106L226,118L214,118ZM250,106L286,106L286,118L250,118ZM298,106L310,106L310,118L298,118ZM10,118L46,118L46,130L10,130ZM94,118L130,118L130,130L94,130ZM154,118L166,118L166,130L154,130ZM178,118L190,118L190,130L178,130ZM202,118L226,118L226,130L202,130ZM238,118L262,118L262,130L238,130ZM298,118L310,118L310,130L298,130ZM10,130L22,130L22,142L10,142ZM34,130L118,130L118,142L34,142ZM142,130L154,130L154,142L142,142ZM166,130L178,130L178,142L166,142ZM202,130L214,130L214,142L202,142ZM262,130L310,130L310,142L262,142ZM46,142L58,142L58,154L46,154ZM94,142L118,142L118,154L94,154ZM142,142L178,142L178,154L142,154ZM190,142L202,142L202,154L190,154ZM214,142L250,142L250,154L214,154ZM262,142L286,142L286,154L262,154ZM298,142L310,142L310,154L298,154ZM34,154L46,154L46,166L34,166ZM58,154L106,154L106,166L58,166ZM118,154L130,154L130,166L118,166ZM154,154L178,154L178,166L154,166ZM190,154L274,154L274,166L190,166ZM286,154L310,154L310,166L286,166ZM22,166L34,166L34,178L22,178ZM46,166L70,166L70,178L46,178ZM94,166L106,166L106,178L94,178ZM130,166L142,166L142,178L130,178ZM190,166L202,166L202,178L190,178ZM226,166L250,166L250,178L226,178ZM262,166L274,166L274,178L262,178ZM286,166L310,166L310,178L286,178ZM22,178L34,178L34,190L22,190ZM46,178L70,178L70,190L46,190ZM82,178L94,178L94,190L82,190ZM118,178L130,178L130,190L118,190ZM142,178L166,178L166,190L142,190ZM178,178L190,178L190,190L178,190ZM214,178L226,178L226,190L214,190ZM238,178L274,178L274,190L238,190ZM298,178L310,178L310,190L298,190ZM10,190L22,190L22,202L10,202ZM94,190L106,190L106,202L94,202ZM118,190L130,190L130,202L118,202ZM142,190L154,190L154,202L142,202ZM166,190L178,190L178,202L166,202ZM202,190L214,190L214,202L202,202ZM286,190L310,190L310,202L286,202ZM34,202L118,202L118,214L34,214ZM142,202L154,202L154,214L142,214ZM178,202L190,202L190,214L178,214ZM202,202L262,202L262,214L202,214ZM286,202L298,202L298,214L286,214ZM106,214L130,214L130,226L106,226ZM142,214L178,214L178,226L142,226ZM202,214L214,214L214,226L202,226ZM250,214L286,214L286,226L250,226ZM10,226L94,226L94,238L10,238ZM118,226L130,226L130,238L118,238ZM142,226L178,226L178,238L142,238ZM190,226L214,226L214,238L190,238ZM226,226L238,226L238,238L226,238ZM250,226L262,226L262,238L250,238ZM274,226L310,226L310,238L274,238ZM10,238L22,238L22,250L10,250ZM82,238L94,238L94,250L82,250ZM118,238L142,238L142,250L118,250ZM166,238L214,238L214,250L166,250ZM250,238L262,238L262,250L250,250ZM286,238L310,238L310,250L286,250ZM10,250L22,250L22,262L10,262ZM34,250L70,250L70,262L34,262ZM82,250L94,250L94,262L82,262ZM118,250L142,250L142,262L118,262ZM154,250L166,250L166,262L154,262ZM178,250L262,250L262,262L178,262ZM274,250L286,250L286,262L274,262ZM298,250L310,250L310,262L298,262ZM10,262L22,262L22,274L10,274ZM34,262L70,262L70,274L34,274ZM82,262L94,262L94,274L82,274ZM106,262L130,262L130,274L106,274ZM142,262L154,262L154,274L142,274ZM190,262L238,262L238,274L190,274ZM250,262L262,262L262,274L250,274ZM286,262L310,262L310,274L286,274ZM10,274L22,274L22,286L10,286ZM34,274L70,274L70,286L34,286ZM82,274L94,274L94,286L82,286ZM106,274L118,274L118,286L106,286ZM166,274L178,274L178,286L166,286ZM190,274L202,274L202,286L190,286ZM262,274L298,274L298,286L262,286ZM10,286L22,286L22,298L10,298ZM82,286L94,286L94,298L82,298ZM106,286L118,286L118,298L106,298ZM130,286L178,286L178,298L130,298ZM202,286L226,286L226,298L202,298ZM250,286L262,286L262,298L250,298ZM274,286L310,286L310,298L274,298ZM10,298L94,298L94,310L10,310ZM106,298L118,298L118,310L106,310ZM130,298L142,298L142,310L130,310ZM166,298L178,298L178,310L166,310ZM202,298L214,298L214,310L202,310ZM274,298L310,298L310,310L274,310Z"/></svg>
