<?xml version="1.0"?>
<svg xmlns="http://www.w3.org/2000/svg" xmlns:xlink="http://www.w3.org/1999/xlink" version="1.1" width="320px" height="320px" viewBox="0 0 320 320"><rect x="0" y="0" width="320" height="320" fill="#ffffff" fill-opacity="1"/><path fill="#000000" fill-opacity="1" d="M10,10L94,10L94,22L10,22ZM118,10L130,10L130,22L118,22ZM154,10L166,10L166,22L154,22ZM190,10L202,10L202,22L190,22ZM226,10L310,10L310,22L226,22ZM10,22L22,22L22,34L10,34ZM82,22L94,22L94,34L82,34ZM106,22L118,22L118,34L106,34ZM142,22L178,22L178,34L142,34ZM202,22L214,22L214,34L202,34ZM226,22L238,22L238,34L226,34ZM298,22L310,22L310,34L298,34ZM10,34L22,34L22,46L10,46ZM34,34L70,34L70,46L34,46ZM82,34L94,34L94,46L82,46ZM106,34L178,34L178,46L106,46ZM190,34L202,34L202,46L190,46ZM226,34L238,34L238,46L226,46ZM250,34L286,34L286,46L250,46ZM298,34L310,34L310,46L298,46ZM10,46L22,46L22,58L10,58ZM34,46L70,46L70,58L34,58ZM82,46L94,46L94,58L82,58ZM118,46L154,46L154,58L118,58ZM178,46L214,46L214,58L178,58ZM226,46L238,46L238,58L226,58ZM250,46L286,46L286,58L250,58ZM298,46L310,46L310,58L298,58ZM10,58L22,58L22,70L10,70ZM34,58L70,58L70,70L34,70ZM82,58L94,58L94,70L82,70ZM106,58L118,58L118,70L106,70ZM166,58L202,58L202,70L166,70ZM226,58L238,58L238,70L226,70ZM250,58L286,58L286,70L250,70ZM298,58L310,58L310,70L298,70ZM10,70L22,70L22,82L10,82ZM82,70L94,70L94,82L82,82ZM106,70L130,70L130,82L106,82ZM142,70L154,70L154,82L142,82ZM190,70L202,70L202,82L190,82ZM226,70L238,70L238,82L226,82ZM298,70L310,70L310,82L298,82ZM10,82L94,82L94,94L10,94ZM106,82L118,82L118,94L106,94ZM130,82L142,82L142,94L130,94ZM154,82L166,82L166,94L154,94ZM178,82L190,82L190,94L178,94ZM202,82L214,82L214,94L202,94ZM226,82L310,82L310,94L226,94ZM106,94L130,94L130,106L106,106ZM154,94L190,94L190,106L154,106ZM10,106L34,106L34,118L10,118ZM46,106L58,106L58,118L46,118ZM82,106L106,106L106,118L82,118ZM130,106L142,106L142,118L130,118ZM166,106L178,106L178,118L166,118ZM202,106L214,106L214,118L202,118ZM226,106L262,106L262,118L226,118ZM274,106L298,106L298,118L274,118ZM10,118L22,118L22,130L10,130ZM34,118L82,118L82,130L34,130ZM94,118L106,118L106,130L94,130ZM130,118L154,118L154,130L130,130ZM166,118L178,118L178,130L166,130ZM202,118L214,118L214,130L202,130ZM226,118L238,118L238,130L226,130ZM250,118L262,118L262,130L250,130ZM286,118L298,118L298,130L286,130ZM10,130L22,130L22,142L10,142ZM34,130L58,130L58,142L34,142ZM82,130L106,130L106,142L82,142ZM118,130L142,130L142,142L118,142ZM190,130L202,130L202,142L190,142ZM214,130L250,130L250,142L214,142ZM262,130L286,130L286,142L262,142ZM46,142L58,142L58,154L46,154ZM70,142L82,142L82,154L70,154ZM106,142L118,142L118,154L106,154ZM166,142L190,142L190,154L166,154ZM226,142L262,142L262,154L226,154ZM298,142L310,142L310,154L298,154ZM10,154L22,154L22,166L10,166ZM34,154L46,154L46,166L34,166ZM70,154L118,154L118,166L70,166ZM154,154L166,154L166,166L154,166ZM178,154L190,154L190,166L178,166ZM214,154L250,154L250,166L214,166ZM274,154L310,154L310,166L274,166ZM58,166L70,166L70,178L58,178ZM106,166L118,166L118,178L106,178ZM130,166L166,166L166,178L130,178ZM178,166L190,166L190,178L178,178ZM202,166L214,166L214,178L202,178ZM238,166L262,166L262,178L238,178ZM274,166L286,166L286,178L274,178ZM298,166L310,166L310,178L298,178ZM10,178L22,178L22,190L10,190ZM34,178L46,178L46,190L34,190ZM82,178L130,178L130,190L82,190ZM154,178L166,178L166,190L154,190ZM226,178L238,178L238,190L226,190ZM250,178L274,178L274,190L250,190ZM286,178L310,178L310,190L286,190ZM22,190L34,190L34,202L22,202ZM58,190L82,190L82,202L58,202ZM106,190L142,190L142,202L106,202ZM154,190L178,190L178,202L154,202ZM202,190L250,190L250,202L202,202ZM10,202L70,202L70,214L10,214ZM82,202L94,202L94,214L82,214ZM106,202L130,202L130,214L106,214ZM142,202L154,202L154,214L142,214ZM166,202L190,202L190,214L166,214ZM202,202L262,202L262,214L202,214ZM298,202L310,202L310,214L298,214ZM106,214L118,214L118,226L106,226ZM130,214L142,214L142,226L130,226ZM178,214L190,214L190,226L178,226ZM202,214L214,214L214,226L202,226ZM250,214L262,214L262,226L250,226ZM10,226L94,226L94,238L10,238ZM106,226L118,226L118,238L106,238ZM166,226L178,226L178,238L166,238ZM190,226L214,226L214,238L190,238ZM226,226L238,226L238,238L226,238ZM250,226L274,226L274,238L250,238ZM286,226L310,226L310,238L286,238ZM10,238L22,238L22,250L10,250ZM82,238L94,238L94,250L82,250ZM118,238L130,238L130,250L118,250ZM142,238L154,238L154,250L142,250ZM166,238L178,238L178,250L166,250ZM190,238L214,238L214,250L190,250ZM250,238L310,238L310,250L250,250ZM10,250L22,250L22,262L10,262ZM34,250L70,250L70,262L34,262ZM82,250L94,250L94,262L82,262ZM130,250L166,250L166,262L130,262ZM178,250L190,250L190,262L178,262ZM202,250L262,250L262,262L202,262ZM274,250L298,250L298,262L274,262ZM10,262L22,262L22,274L10,274ZM34,262L70,262L70,274L34,274ZM82,262L94,262L94,274L82,274ZM106,262L118,262L118,274L106,274ZM130,262L178,262L178,274L130,274ZM202,262L226,262L226,274L202,274ZM238,262L262,262L262,274L238,274ZM10,274L22,274L22,286L10,286ZM34,274L70,274L70,286L34,286ZM82,274L94,274L94,286L82,286ZM130,274L202,274L202,286L130,286ZM238,274L250,274L250,286L238,286ZM262,274L286,274L286,286L262,286ZM298,274L310,274L310,286L298,286ZM10,286L22,286L22,298L10,298ZM82,286L94,286L94,298L82,298ZM106,286L118,286L118,298L106,298ZM142,286L178,286L178,298L142,298ZM214,286L226,286L226,298L214,298ZM262,286L274,286L274,298L262,298ZM286,286L310,286L310,298L286,298ZM10,298L94,298L94,310L10,310ZM106,298L154,298L154,310L106,310ZM178,298L190,298L190,310L178,310ZM202,298L214,298L214,310L202,310ZM250,298L274,298L274,310L250,310ZM286,298L310,298L310,310L286,310Z"/></svg>
